<?xml version="1.0" ?><!DOCTYPE svg  PUBLIC '-//W3C//DTD SVG 1.1//EN'  'http://www.w3.org/Graphics/SVG/1.1/DTD/svg11.dtd'><svg height="512px" style="enable-background:new 0 0 512 512;" version="1.1" viewBox="0 0 512 512" width="512px" xml:space="preserve" xmlns="http://www.w3.org/2000/svg" xmlns:xlink="http://www.w3.org/1999/xlink"><g id="形状_1_11_" style="enable-background:new    ;"><g id="形状_1"><g><path d="M103.264,253.107l-11.996,6.446l22.641-1.199v24.143     c-4.499,1.798-9.444,3.747-19.043,3.747c-32.685,0-53.081-26.539-53.081-54.728c0-26.241,17.844-44.234,41.539-44.234     c17.688,0,26.988,9.146,32.086,14.092l-3.748,6l5.247-1.199l12.445-11.844c-3.299-2.253-8.548-6.149-19.793-9.3     c-7.046-1.946-14.844-3.148-22.941-3.148c-38.235,0-60.578,26.989-60.578,56.079c0,23.841,15.743,54.281,57.129,54.281     c8.246,0,16.044-1.2,24.742-2.551l21.441-4.947v-18.292c0-1.499,0.149-5.848,0.299-7.198c0.299-1.2,0.452-1.499,1.502-2.396     l3.897-3.751H103.264z" style="fill-rule:evenodd;clip-rule:evenodd;fill:#006CBA;"/></g></g></g><g id="形状_1_10_" style="enable-background:new    ;"><g id="形状_1_1_"><g><path d="M180.949,213.717c-24.313,0-41.427,17.915-41.427,38.866     c0,17.914,13.595,37.743,39.027,37.743c26.07,0,40.622-19.991,40.622-38.863C219.171,232.11,204.458,213.717,180.949,213.717z      M198.539,277.374c-3.677,5.117-10.073,8.156-16.311,8.156c-19.353,0-27.192-26.071-27.192-41.904     c0-6.877,1.12-13.915,7.356-19.514c3.841-3.357,9.12-5.438,14.398-5.438c19.831,0,26.548,26.869,26.548,40.944     C203.338,265.857,202.379,272.255,198.539,277.374z" style="fill-rule:evenodd;clip-rule:evenodd;fill:#E72E26;"/></g></g></g><g id="形状_1_9_" style="enable-background:new    ;"><g id="形状_1_2_"><g><path d="M266.033,213.717c-24.307,0-41.421,17.915-41.421,38.866     c0,17.914,13.595,37.743,39.025,37.743c26.068,0,40.627-19.991,40.627-38.863C304.264,232.11,289.549,213.717,266.033,213.717z      M283.629,277.374c-3.678,5.117-10.078,8.156-16.316,8.156c-19.35,0-27.187-26.071-27.187-41.904     c0-6.877,1.122-13.915,7.356-19.514c3.839-3.357,9.118-5.438,14.393-5.438c19.834,0,26.553,26.869,26.553,40.944     C288.428,265.857,287.468,272.255,283.629,277.374z" style="fill-rule:evenodd;clip-rule:evenodd;fill:#FFE30A;"/></g></g></g><g id="形状_1_8_" style="enable-background:new    ;"><g id="形状_1_3_"><g><path d="M366.158,285.05l-5.759-4.48     c-1.758-1.438-4.157-3.356-4.157-6.875c0-3.516,2.399-5.759,4.481-7.837c6.713-5.279,13.431-10.876,13.431-22.711     c0-12.156-7.678-18.554-11.355-21.593h9.916l10.234-5.757h-32.945c-8.638,0-19.508,1.277-28.626,8.796     c-6.88,5.917-10.239,14.074-10.239,21.432c0,12.476,9.598,25.111,26.55,25.111c1.602,0,3.359-0.162,5.122-0.32     c-0.803,1.919-1.601,3.518-1.601,6.238c0,4.958,2.556,7.996,4.793,10.875c-7.192,0.48-20.63,1.278-30.546,7.355     c-9.436,5.6-12.315,13.755-12.315,19.514c0,11.835,11.194,22.872,34.385,22.872c27.511,0,42.063-15.194,42.063-30.227     C379.59,296.405,373.2,290.965,366.158,285.05z M345.205,266.658c-13.755,0-19.993-17.756-19.993-28.472     c0-4.157,0.798-8.476,3.521-11.835c2.562-3.199,7.037-5.279,11.194-5.279c13.28,0,20.154,17.914,20.154,29.43     c0,2.878-0.323,7.998-3.995,11.678C353.524,264.735,349.2,266.658,345.205,266.658z M345.367,330.949     c-17.114,0-28.152-8.155-28.152-19.508c0-11.358,10.24-15.195,13.755-16.476c6.719-2.24,15.356-2.562,16.797-2.562     c1.596,0,2.399,0,3.677,0.162c12.159,8.638,17.433,12.954,17.433,21.115C368.876,323.595,360.724,330.949,345.367,330.949z" style="fill-rule:evenodd;clip-rule:evenodd;fill:#006CBA;"/></g></g></g><g id="形状_1_7_" style="enable-background:new    ;"><g id="形状_1_4_"><g><path d="M413.021,283.931c-5.279-0.479-6.396-1.439-6.396-7.678     v-36.947c0-22.711,0.162-42.224,1.439-54.536c0.637-5.6,2.238-6.56,7.193-9.439h-22.867l-11.997,5.759h12.471     c-0.156,7.356-0.798,17.594-0.959,25.75c-0.475,16.633-0.637,34.388-0.637,46.862v26.072c0,3.195-0.642,3.678-4.318,8.474h28.308     l5.92-3.518C418.461,284.411,415.743,284.252,413.021,283.931z" style="fill-rule:evenodd;clip-rule:evenodd;fill:#1BAC4A;"/></g></g></g><g id="形状_1_6_" style="enable-background:new    ;"><g id="形状_1_5_"><g><path d="M466.438,282.33c-15.194,0-28.944-11.833-32.945-32.145     l12.315-0.963l37.582-15.193c-1.115-3.68-3.197-10.558-11.188-15.835c-4.799-3.039-10.719-4.478-16.472-4.478     c-16.479,0-36.628,12.156-36.628,36.945c0,11.995,4.955,25.75,16.311,33.749c8.152,5.915,16.154,6.235,21.271,6.235     c4.799,0,10.234-0.639,15.518-3.038c1.753-0.801,3.517-1.92,5.273-2.879l8.482-7.997     C480.517,279.453,474.597,282.33,466.438,282.33z M432.852,241.227c0-17.273,11.992-22.232,18.393-22.232     c8.644,0,15.836,7.357,15.836,13.755c0,2.24-1.602,3.198-4.637,4.32l-29.111,12.634     C433.17,246.823,432.852,243.947,432.852,241.227z" style="fill-rule:evenodd;clip-rule:evenodd;fill:#E72E26;"/></g></g></g></svg>