<?xml version="1.0" ?><!DOCTYPE svg  PUBLIC '-//W3C//DTD SVG 1.1//EN'  'http://www.w3.org/Graphics/SVG/1.1/DTD/svg11.dtd'><svg height="512px" style="enable-background:new 0 0 512 512;" version="1.1" viewBox="0 0 512 512" width="512px" xml:space="preserve" xmlns="http://www.w3.org/2000/svg" xmlns:xlink="http://www.w3.org/1999/xlink"><g id="_x33_6-baidu"><g><path d="M312.539,173.161c27.958,7.188,58.516-17.788,68.099-55.791    c12.541-49.415-15.771-79.42-33.24-81.759c-28.676-3.771-58.514,17.788-68.099,55.795    C269.71,129.405,284.497,165.974,312.539,173.161z" style="fill:#2B33E0;"/><path d="M199.733,166.514c28.009,0,50.712-31.457,50.712-70.26c0-38.799-22.703-70.253-50.712-70.253    c-28.006,0-50.714,31.455-50.714,70.253C149.019,135.057,171.727,166.514,199.733,166.514z" style="fill:#2B33E0;"/><path d="M413.074,163.637c-29.48,0.455-52.777,28.484-52.151,72.056    c0.632,43.483,25.002,63.344,54.48,62.891c29.392-0.445,52.773-20.932,52.144-64.419    C466.653,177.386,420.154,163.548,413.074,163.637z" style="fill:#2B33E0;"/><path d="M101.825,272.184c28.832-2.019,49.988-35.364,47.258-74.471    c-2.724-39.102-28.31-69.168-57.141-67.145c-28.832,2.023-49.987,35.365-47.266,74.474    C47.408,244.146,72.996,274.205,101.825,272.184z" style="fill:#2B33E0;"/><path d="M386.104,326.883c-25.181-22.188-46.592-40.339-80.012-86.879    c-16.58-22.999-35.665-25.96-55.556-25.96c-19.98,0-41.038,7.009-57.162,30.362c-16.132,23.268-34.5,46.091-70.157,75.826    c-35.574,29.83-50.719,50.405-50.719,80.777c0,30.362,17.294,80.768,66.394,80.768c49.103,0,72.843-10.878,111.729-10.878    c38.889,0,64.602,15.1,113.707,15.1c49.105,0,69.619-46.636,69.619-76.903C433.948,378.723,425.439,361.566,386.104,326.883z" style="fill:#2B33E0;"/></g></g><g id="Layer_1"/></svg>